<svg id="Layer_1" data-name="Layer 1" xmlns="http://www.w3.org/2000/svg" xmlns:xlink="http://www.w3.org/1999/xlink" viewBox="0 0 500 130"><defs><style>.cls-1{fill:url(#linear-gradient);}.cls-2{fill:url(#linear-gradient-2);}.cls-3{fill:url(#linear-gradient-3);}.cls-4{fill:#94c943;}.cls-5{fill:#1d3a5f;}</style><linearGradient id="linear-gradient" x1="74.04" y1="125.92" x2="74.04" y2="71.78" gradientUnits="userSpaceOnUse"><stop offset="0" stop-color="#1d3a5f" stop-opacity="0.3"/><stop offset="1" stop-color="#1d3a5f" stop-opacity="0.8"/></linearGradient><linearGradient id="linear-gradient-2" x1="28.78" y1="125.92" x2="28.78" y2="71.78" xlink:href="#linear-gradient"/><linearGradient id="linear-gradient-3" x1="51.4" y1="125.92" x2="51.4" y2="71.78" xlink:href="#linear-gradient"/></defs><title>Artboard 1</title><path class="cls-1" d="M80.16,70.81a1.38,1.38,0,0,0-1.35,1.12l-3.9,20.85a1.59,1.59,0,0,1-3.16-.3V73.72a1.45,1.45,0,0,0-2.89-.08L66.55,115a44.71,44.71,0,0,0,6.66-6.37,45.92,45.92,0,0,0,4.19-5.81v0l4.1-30.43A1.37,1.37,0,0,0,80.16,70.81Z"/><path class="cls-2" d="M32.5,72.27a1.45,1.45,0,0,0-1.45,1.45V92.48a1.59,1.59,0,0,1-3.15.3L24,71.92a1.36,1.36,0,0,0-2.68.43l3.93,30.43v0a50.75,50.75,0,0,0,4.36,5.81A50,50,0,0,0,36.26,115L34,73.64A1.45,1.45,0,0,0,32.5,72.27Z"/><path class="cls-3" d="M57.29,75.18a1.6,1.6,0,0,0-1.61,1.51L54.47,98.44a3.07,3.07,0,0,1-6.14,0l-1.2-21.75a1.61,1.61,0,0,0-3.22.13l1,37.6A16.94,16.94,0,0,0,47,118.79a17.35,17.35,0,0,0,4.36,4.36,17.1,17.1,0,0,0,6.53-8.73l1-37.6A1.59,1.59,0,0,0,57.29,75.18Z"/><path class="cls-4" d="M95,38.58a79,79,0,0,0-8.77-4.82,82.92,82.92,0,0,0-14.87-5.35A83.56,83.56,0,0,0,60,26.27a73.48,73.48,0,0,0-8.62-.52,79.09,79.09,0,0,0-20,2.56,82.73,82.73,0,0,0-14.86,5.48A87.33,87.33,0,0,0,7.79,38.7,1.53,1.53,0,0,0,9,41.48l4.83-1.07a3.25,3.25,0,0,1,3.93,2.78L20.56,66.4a1.62,1.62,0,0,0,3.22-.2V53.46a1.64,1.64,0,0,1,3.22-.4l3.85,15.21a1.41,1.41,0,0,0,2.78-.43L32,37.61a5.5,5.5,0,0,1,8.7-4.77l.05,0A5.51,5.51,0,0,1,43,37.22l.77,33.35a1.73,1.73,0,0,0,3.45.18l2.54-20.3A1.64,1.64,0,0,1,51.4,49,1.66,1.66,0,0,1,53,50.45l2.53,20.3A1.74,1.74,0,0,0,59,70.57l.77-33.35a5.52,5.52,0,0,1,2.29-4.35l0,0a5.5,5.5,0,0,1,7.1.58h0a5.5,5.5,0,0,1,1.6,4.19L69.18,67.93a1.41,1.41,0,0,0,2.78.43L75.8,53.15a1.65,1.65,0,0,1,1.59-1.23A1.63,1.63,0,0,1,79,53.55V66.3a1.61,1.61,0,0,0,3.21.19l2.86-23.3A3.25,3.25,0,0,1,89,40.41l4.78,1.06A1.59,1.59,0,0,0,95,38.58Z"/><circle class="cls-4" cx="51.4" cy="12.67" r="5.81"/><circle class="cls-4" cx="23.78" cy="19.94" r="4.36"/><circle class="cls-4" cx="79.02" cy="19.94" r="4.36"/><path class="cls-5" d="M120.45,71.32V58.41c0-6.11.32-9.91,1-11.43q1.49-3.57,7.72-9.28T138.51,32q3.13,0,9.37,5.72T155.6,47c.64,1.52,1,5.32,1,11.43V68.7q0,9.17-.83,11.17a20.51,20.51,0,0,1-4.18,5.45,24.87,24.87,0,0,1-7,5.19c2.61,1.92,4.27,2.87,5,2.87,1.39,0,2.82-.81,4.27-2.44l8.11,5.67a53.4,53.4,0,0,1-6.84,6.11q-3.54,2.61-5.54,2.61-3.15,0-9.42-4.14a77.46,77.46,0,0,1-12.39-10.33c1.4-1,3.08-2.17,5.06-3.54s3.39-2.35,4.23-3,1.79-1.35,2.84-2.23a17.19,17.19,0,0,0,4-4.62c.46-.93.7-3.87.7-8.81V58.41c0-4.77-.24-7.69-.7-8.77a12.43,12.43,0,0,0-2.4-3.4c-1.14-1.19-2.11-1.79-2.92-1.79s-1.79.6-2.93,1.79a12.16,12.16,0,0,0-2.39,3.4q-.7,1.62-.7,8.77V71.32a50.57,50.57,0,0,0,.52,9l-9.07,6.28a22.75,22.75,0,0,1-2.62-4.18C120.74,81.12,120.45,77.42,120.45,71.32Z"/><path class="cls-5" d="M162.23,47.07h11.51V79.52a4.82,4.82,0,0,0,1.4,3.09,3.75,3.75,0,0,0,2.62,1.62q1.22,0,5.05-3.58V47.07h11.52v47h-8.9l-1.05-5.14q-6.54,6.19-9.15,6.19t-7.81-4.84q-5.19-4.85-5.19-9.55Z"/><path class="cls-5" d="M234.36,70.45v3.14H213.25a21.46,21.46,0,0,0,1.31,8.28A6.67,6.67,0,0,0,216.13,84a3.39,3.39,0,0,0,2.36,1.09c.81,0,1.83-.7,3-2.09A15.52,15.52,0,0,0,224.42,78l9,6.36a21.46,21.46,0,0,1-7.19,7.59q-4.85,3.22-7.81,3.23t-8.59-4.62q-5.62-4.62-6.85-7.2t-1.22-12.73q0-10.17,1.22-12.74t6.85-7.19Q215.44,46,218.05,46t8.24,4.63q5.63,4.62,6.85,7.19T234.36,70.45Zm-12.08-11a8.53,8.53,0,0,0-2-2.31,4,4,0,0,0-2.52-1.13c-.79,0-1.68.77-2.66,2.31a15.24,15.24,0,0,0-1.84,6.93h9.95C223,62.22,222.72,60.29,222.28,59.5Z"/><path class="cls-5" d="M271.6,80q0,2.72-6.71,8.94t-10,6.24q-3.27,0-8.11-3.23a21.41,21.41,0,0,1-7.2-7.59l9-6.19c2.9,4.07,5,6.11,6.36,6.11a7,7,0,0,0,3.67-1.49c1.45-1,2.18-1.91,2.18-2.79,0-.23-.7-.74-2.1-1.52s-3.09-1.78-5.1-3a67,67,0,0,1-6-4A20.92,20.92,0,0,1,242.56,66a11.86,11.86,0,0,1-2.09-6.54q0-3.32,5.93-8.38T255.51,46q3.18,0,8,3.23a21.46,21.46,0,0,1,7.19,7.59l-9,6.19q-4.37-6.11-6.37-6.1a4.57,4.57,0,0,0-2.57,1.17c-1,.79-1.53,1.5-1.53,2.14s1.06,1.63,3.18,3,4.45,2.72,7,4.14a28.86,28.86,0,0,1,7,5.58A10.39,10.39,0,0,1,271.6,80Z"/><path class="cls-5" d="M290.53,56.23V75.5A11.57,11.57,0,0,0,293.32,83a19,19,0,0,0,7.68,5.4l-9.6,6.72a25.05,25.05,0,0,1-8.81-6.76A14.11,14.11,0,0,1,279,79.26v-23h-4.36V49.69l4.36-1a24.25,24.25,0,0,0-1-6.76A12.72,12.72,0,0,0,274.66,37l9.59-6.71q6.28,5,6.28,14.12v2.62h9.77v9.16Z"/><path class="cls-5" d="M329.78,91.93q-3.58,2.85-5.26,2.85c-1.13,0-2.88-1-5.27-2.85a20.47,20.47,0,0,1-4.39-4.24q-1.22-2.16-1.22-9.31c0-4.76.41-7.85,1.22-9.24a20.44,20.44,0,0,1,4.39-4.25c2.39-1.9,4.14-2.85,5.27-2.85s2.87,1,5.26,2.85a20.44,20.44,0,0,1,4.39,4.25c.81,1.39,1.22,4.48,1.22,9.24s-.41,7.87-1.22,9.31A20.47,20.47,0,0,1,329.78,91.93Zm-6.69-4.71a1.6,1.6,0,0,0,2.85,0,7.56,7.56,0,0,0,1.31-1.57q.75-1.28.75-7.21t-.75-7.27a7.83,7.83,0,0,0-1.31-1.57,1.6,1.6,0,0,0-2.85,0,7.83,7.83,0,0,0-1.31,1.57q-.75,1.29-.75,7.21t.75,7.27A7.56,7.56,0,0,0,323.09,87.22Z"/><path class="cls-5" d="M338,71.12V66.75l2.91-.69c0-4.34.22-7,.64-8s1.9-2.48,4.42-4.54,4.37-3.08,5.55-3.08A9.08,9.08,0,0,1,356,52.13a12,12,0,0,1,4,3.81l-5.69,3.84c-1.09-1.75-2-2.62-2.79-2.62a2.05,2.05,0,0,0-1.34.76A5.74,5.74,0,0,0,349,59.49c-.28.54-.41,2.38-.41,5.52h8.25v6.11h-8.25v23h-7.68v-23Z"/><path class="cls-4" d="M403.59,83.62V94.08H371.76V33h12V83.62Z"/><path class="cls-4" d="M413.93,28.84q.92,0,4.23,2.84t3.31,3.83q0,1-3.35,3.89t-4.28,2.87q-.91,0-4.23-2.83T406.3,35.6q0-1,3.36-3.88C411.89,29.8,413.32,28.84,413.93,28.84Zm-6,18.23h11.51V77.25a18,18,0,0,0,1,6.89,11,11,0,0,0,3.31,4.27l-9.59,6.72Q408,90.17,408,81Z"/><path class="cls-4" d="M425.14,59.63V53.09L429.5,52q0-9.76,1-11.95c.64-1.45,2.84-3.72,6.63-6.8s6.55-4.62,8.33-4.62,4,.83,6.67,2.48a18.26,18.26,0,0,1,6,5.72l-8.55,5.75q-2.44-3.91-4.19-3.92a3.11,3.11,0,0,0-2,1.13,9.12,9.12,0,0,0-1.75,2.36q-.62,1.22-.61,8.28H453.4v9.16H441V94.08H429.5V59.63Z"/><path class="cls-4" d="M489.42,70.45v3.14H468.31a21.46,21.46,0,0,0,1.31,8.28A6.52,6.52,0,0,0,471.19,84a3.37,3.37,0,0,0,2.35,1.09c.82,0,1.83-.7,3.06-2.09A15.32,15.32,0,0,0,479.47,78l9,6.36a21.41,21.41,0,0,1-7.2,7.59q-4.85,3.22-7.8,3.23t-8.6-4.62q-5.62-4.62-6.84-7.2T456.8,70.58q0-10.17,1.22-12.74t6.84-7.19Q470.49,46,473.11,46t8.24,4.63q5.63,4.62,6.85,7.19T489.42,70.45Zm-12.08-11a8.7,8.7,0,0,0-2-2.31,4,4,0,0,0-2.53-1.13c-.78,0-1.67.77-2.66,2.31a15.12,15.12,0,0,0-1.83,6.93h9.94C478.08,62.22,477.77,60.29,477.34,59.5Z"/></svg>